<svg width="95" height="56" viewBox="0 0 95 56" fill="none" xmlns="http://www.w3.org/2000/svg">
<path d="M59.6019 3.21283C66.9458 3.81245 74.7132 5.13344 81.0763 8.04049C87.4294 10.9429 92.3369 15.4023 94.0778 22.2735C95.6178 28.3519 92.7854 33.2038 88.0613 37.4791C84.3984 40.794 79.6791 43.6902 75.132 46.4807C73.7926 47.3027 72.4682 48.1155 71.1901 48.9271C62.6978 54.32 53.4084 57.9062 44.6085 53.565C41.5269 52.0448 38.1711 50.53 34.7426 48.9824C32.7371 48.0771 30.7066 47.1606 28.6917 46.2252C23.2166 43.6835 17.8318 40.9921 13.2532 37.9654C8.67082 34.9362 4.93389 31.5954 2.71644 27.7715C0.510871 23.968 -0.20655 19.6625 1.28753 14.6383C2.80368 9.54002 5.79123 6.18097 9.76388 4.01635C13.7547 1.84186 18.7621 0.861504 24.3143 0.585405C29.8628 0.30949 35.9144 0.738298 41.9719 1.35177C44.3341 1.591 46.7021 1.85895 49.0401 2.1235C52.6787 2.53522 56.2444 2.9387 59.6019 3.21283Z" fill="#C60051" fill-opacity="0.6" stroke="black"/>
</svg>
